<?xml version="1.0" encoding="UTF-8" standalone="no"?>
<svg
   xmlns:dc="http://purl.org/dc/elements/1.1/"
   xmlns:cc="http://creativecommons.org/ns#"
   xmlns:rdf="http://www.w3.org/1999/02/22-rdf-syntax-ns#"
   xmlns:svg="http://www.w3.org/2000/svg"
   xmlns="http://www.w3.org/2000/svg"
   xmlns:sodipodi="http://sodipodi.sourceforge.net/DTD/sodipodi-0.dtd"
   xmlns:inkscape="http://www.inkscape.org/namespaces/inkscape"
   sodipodi:docname="flowchartSimple.svg"
   inkscape:version="0.48.2 r9819"
   version="1.1"
   id="svg3320"
   viewBox="124 33 581 1815"
   height="91cm"
   width="30cm">
  <sodipodi:namedview
     pagecolor="#ffffff"
     bordercolor="#666666"
     borderopacity="1"
     objecttolerance="10"
     gridtolerance="10"
     guidetolerance="10"
     inkscape:pageopacity="0"
     inkscape:pageshadow="2"
     inkscape:window-width="1918"
     inkscape:window-height="1059"
     id="namedview3630"
     showgrid="false"
     inkscape:zoom="0.13583883"
     inkscape:cx="745.66506"
     inkscape:cy="1522.5711"
     inkscape:window-x="0"
     inkscape:window-y="19"
     inkscape:window-maximized="0"
     inkscape:current-layer="svg3320" />
  <metadata
     id="metadata3634">
    <rdf:RDF>
      <cc:Work
         rdf:about="">
        <dc:format>image/svg+xml</dc:format>
        <dc:type
           rdf:resource="http://purl.org/dc/dcmitype/StillImage" />
      </cc:Work>
    </rdf:RDF>
  </metadata>
  <defs
     id="defs3632" />
  <path
     inkscape:connector-curvature="0"
     id="path3324"
     d="m 382.913,34 92.474,0 c 12.769,0 23.119,10.5213 23.119,23.5 0,12.9787 -10.35,23.5 -23.119,23.5 l -92.474,0 c -12.769,0 -23.119,-10.5213 -23.119,-23.5 0,-12.9787 10.35,-23.5 23.119,-23.5 z"
     style="fill:#ffffff" />
  <path
     inkscape:connector-curvature="0"
     id="path3326"
     d="m 382.913,34 92.474,0 c 12.769,0 23.119,10.5213 23.119,23.5 0,12.9787 -10.35,23.5 -23.119,23.5 l -92.474,0 c -12.769,0 -23.119,-10.5213 -23.119,-23.5 0,-12.9787 10.35,-23.5 23.119,-23.5"
     style="fill:none;stroke:#000000;stroke-width:2" />
  <text
     id="text3328"
     y="61.5"
     x="429.14999"
     style="font-size:12.79979992px;font-style:normal;font-weight:normal;text-anchor:middle;fill:#000000;font-family:sanserif">
    <tspan
       id="tspan3330"
       y="61.5"
       x="429.14999">Начало</tspan>
  </text>
  <polygon
     id="polygon3334"
     points="486.438,158 357.667,158 371.862,119 500.633,119 "
     style="fill:#ffffff" />
  <polygon
     id="polygon3336"
     points="486.438,158 357.667,158 371.862,119 500.633,119 "
     style="fill:none;stroke:#000000;stroke-width:2" />
  <text
     id="text3338"
     y="142.39999"
     x="429.14999"
     style="font-size:12.79979992px;font-style:normal;font-weight:normal;text-anchor:middle;fill:#000000;font-family:sanserif">
    <tspan
       id="tspan3340"
       y="142.39999"
       x="429.14999">A, f, n, epsil</tspan>
  </text>
  <rect
     id="rect3344"
     height="86"
     width="243.10001"
     y="178"
     x="307.60001"
     style="fill:#ffffff" />
  <rect
     id="rect3346"
     height="86"
     width="243.10001"
     y="178"
     x="307.60001"
     style="fill:none;stroke:#000000;stroke-width:2" />
  <text
     id="text3348"
     y="200.89999"
     x="429.14999"
     style="font-size:12.79979992px;font-style:normal;font-weight:normal;text-anchor:middle;fill:#000000;font-family:sanserif">
    <tspan
       id="tspan3350"
       y="200.89999"
       x="429.14999">Приводим матрицу к</tspan>
    <tspan
       id="tspan3352"
       y="216.89999"
       x="429.14999">диагональному доминированию</tspan>
    <tspan
       id="tspan3354"
       y="232.89999"
       x="429.14999">(как в методе Гаусса с выбором</tspan>
    <tspan
       id="tspan3356"
       y="248.89999"
       x="429.14999">главного элемента)</tspan>
  </text>
  <rect
     id="rect3360"
     height="38"
     width="243.10001"
     y="309.39999"
     x="307.60001"
     style="fill:#ffffff" />
  <rect
     id="rect3362"
     height="38"
     width="243.10001"
     y="309.39999"
     x="307.60001"
     style="fill:none;stroke:#000000;stroke-width:2" />
  <text
     id="text3364"
     y="332.29999"
     x="429.14999"
     style="font-size:12.79979992px;font-style:normal;font-weight:normal;text-anchor:middle;fill:#000000;font-family:sanserif">
    <tspan
       id="tspan3366"
       y="332.29999"
       x="429.14999">i=0</tspan>
  </text>
  <polygon
     id="polygon3370"
     points="429.15,537 304.65,468.147 429.15,399.293 553.65,468.147 "
     style="fill:#ffffff" />
  <polygon
     id="polygon3372"
     points="429.15,537 304.65,468.147 429.15,399.293 553.65,468.147 "
     style="fill:none;stroke:#000000;stroke-width:2" />
  <text
     id="text3374"
     y="472.047"
     x="429.14999"
     style="font-size:12.79979992px;font-style:normal;font-weight:normal;text-anchor:middle;fill:#000000;font-family:sanserif">
    <tspan
       id="tspan3376"
       y="472.047"
       x="429.14999">i&lt;n</tspan>
  </text>
  <rect
     id="rect3380"
     height="38"
     width="243.10001"
     y="592.40002"
     x="307.60001"
     style="fill:#ffffff" />
  <rect
     id="rect3382"
     height="38"
     width="243.10001"
     y="592.40002"
     x="307.60001"
     style="fill:none;stroke:#000000;stroke-width:2" />
  <text
     id="text3384"
     y="615.29999"
     x="429.14999"
     style="font-size:12.79979992px;font-style:normal;font-weight:normal;text-anchor:middle;fill:#000000;font-family:sanserif">
    <tspan
       id="tspan3386"
       y="615.29999"
       x="429.14999">j=0</tspan>
  </text>
  <rect
     id="rect3390"
     height="38"
     width="107"
     y="1050"
     x="584.65002"
     style="fill:#ffffff" />
  <rect
     id="rect3392"
     height="38"
     width="107"
     y="1050"
     x="584.65002"
     style="fill:none;stroke:#000000;stroke-width:2" />
  <text
     id="text3394"
     y="1072.9"
     x="638.15002"
     style="font-size:12.79979992px;font-style:normal;font-weight:normal;text-anchor:middle;fill:#000000;font-family:sanserif">
    <tspan
       id="tspan3396"
       y="1072.9"
       x="638.15002" />
  </text>
  <rect
     id="rect3400"
     height="38"
     width="243.10001"
     y="1182.4"
     x="307.60001"
     style="fill:#ffffff" />
  <rect
     id="rect3402"
     height="38"
     width="243.10001"
     y="1182.4"
     x="307.60001"
     style="fill:none;stroke:#000000;stroke-width:2" />
  <text
     id="text3404"
     y="1205.3"
     x="429.14999"
     style="font-size:12.79979992px;font-style:normal;font-weight:normal;text-anchor:middle;fill:#000000;font-family:sanserif">
    <tspan
       id="tspan3406"
       y="1205.3"
       x="429.14999">j=j+1</tspan>
  </text>
  <line
     id="line3410"
     y2="108.261"
     x2="429.14999"
     y1="81"
     x1="429.14999"
     style="fill:none;stroke:#000000;stroke-width:2" />
  <polygon
     id="polygon3412"
     points="429.15,108.261 434.15,105.761 429.15,115.761 424.15,105.761 "
     style="fill:#000000" />
  <polygon
     id="polygon3414"
     points="429.15,108.261 434.15,105.761 429.15,115.761 424.15,105.761 "
     style="fill:none;stroke:#000000;stroke-width:2" />
  <line
     id="line3418"
     y2="167.26401"
     x2="429.11301"
     y1="159.5"
     x1="429.10699"
     style="fill:none;stroke:#000000;stroke-width:2" />
  <polygon
     id="polygon3420"
     points="429.113,167.264 434.111,164.76 429.118,174.764 424.111,164.767 "
     style="fill:#000000" />
  <polygon
     id="polygon3422"
     points="429.113,167.264 434.111,164.76 429.118,174.764 424.111,164.767 "
     style="fill:none;stroke:#000000;stroke-width:2" />
  <line
     id="line3426"
     y2="298.67099"
     x2="429.14999"
     y1="265.005"
     x1="429.14999"
     style="fill:none;stroke:#000000;stroke-width:2" />
  <polygon
     id="polygon3428"
     points="429.15,298.671 434.15,296.171 429.15,306.171 424.15,296.171 "
     style="fill:#000000" />
  <polygon
     id="polygon3430"
     points="429.15,298.671 434.15,296.171 429.15,306.171 424.15,296.171 "
     style="fill:none;stroke:#000000;stroke-width:2" />
  <line
     id="line3434"
     y2="388.55701"
     x2="429.14999"
     y1="348.40201"
     x1="429.14999"
     style="fill:none;stroke:#000000;stroke-width:2" />
  <polygon
     id="polygon3436"
     points="429.15,388.557 434.15,386.057 429.15,396.057 424.15,386.057 "
     style="fill:#000000" />
  <polygon
     id="polygon3438"
     points="429.15,388.557 434.15,386.057 429.15,396.057 424.15,386.057 "
     style="fill:none;stroke:#000000;stroke-width:2" />
  <line
     id="line3442"
     y2="581.729"
     x2="429.14999"
     y1="538"
     x1="429.14999"
     style="fill:none;stroke:#000000;stroke-width:2" />
  <polygon
     id="polygon3444"
     points="429.15,581.729 434.15,579.229 429.15,589.229 424.15,579.229 "
     style="fill:#000000" />
  <polygon
     id="polygon3446"
     points="429.15,581.729 434.15,579.229 429.15,589.229 424.15,579.229 "
     style="fill:none;stroke:#000000;stroke-width:2" />
  <line
     id="line3450"
     y2="662.664"
     x2="429.14999"
     y1="631.40698"
     x1="429.14999"
     style="fill:none;stroke:#000000;stroke-width:2" />
  <polygon
     id="polygon3452"
     points="429.15,662.664 434.15,660.164 429.15,670.164 424.15,660.164 "
     style="fill:#000000" />
  <polygon
     id="polygon3454"
     points="429.15,662.664 434.15,660.164 429.15,670.164 424.15,660.164 "
     style="fill:none;stroke:#000000;stroke-width:2" />
  <line
     id="line3458"
     y2="848.164"
     x2="429.14999"
     y1="812.10699"
     x1="429.14999"
     style="fill:none;stroke:#000000;stroke-width:2" />
  <polygon
     id="polygon3460"
     points="429.15,848.164 434.15,845.664 429.15,855.664 424.15,845.664 "
     style="fill:#000000" />
  <polygon
     id="polygon3462"
     points="429.15,848.164 434.15,845.664 429.15,855.664 424.15,845.664 "
     style="fill:none;stroke:#000000;stroke-width:2" />
  <polyline
     id="polyline3466"
     points="429.15,927.753 429.15,927 215.15,927 215.15,1039.28 "
     style="fill:none;stroke:#000000;stroke-width:2" />
  <polygon
     id="polygon3468"
     points="215.15,1039.28 220.15,1036.78 215.15,1046.78 210.15,1036.78 "
     style="fill:#000000" />
  <polygon
     id="polygon3470"
     points="215.15,1039.28 220.15,1036.78 215.15,1046.78 210.15,1036.78 "
     style="fill:none;stroke:#000000;stroke-width:2" />
  <polyline
     id="polyline3474"
     points="429.15,927.753 429.15,928.5 637.875,928.5 637.875,1039.26 "
     style="fill:none;stroke:#000000;stroke-width:2" />
  <polygon
     id="polygon3476"
     points="637.875,1039.26 642.875,1036.76 637.875,1046.76 632.875,1036.76 "
     style="fill:#000000" />
  <polygon
     id="polygon3478"
     points="637.875,1039.26 642.875,1036.76 637.875,1046.76 632.875,1036.76 "
     style="fill:none;stroke:#000000;stroke-width:2" />
  <polygon
     id="polygon3482"
     points="429.15,996.607 304.65,927.753 429.15,858.9 553.65,927.753 "
     style="fill:#ffffff" />
  <polygon
     id="polygon3484"
     points="429.15,996.607 304.65,927.753 429.15,858.9 553.65,927.753 "
     style="fill:none;stroke:#000000;stroke-width:2" />
  <text
     id="text3486"
     y="931.65302"
     x="429.14999"
     style="font-size:12.79979992px;font-style:normal;font-weight:normal;text-anchor:middle;fill:#000000;font-family:sanserif">
    <tspan
       id="tspan3488"
       y="931.65302"
       x="429.14999">i=j</tspan>
  </text>
  <polyline
     id="polyline3492"
     points="638.15,1088 638.15,1201.4 560.436,1201.4 "
     style="fill:none;stroke:#000000;stroke-width:2" />
  <polygon
     id="polygon3494"
     points="560.436,1201.4 562.936,1206.4 552.936,1201.4 562.936,1196.4 "
     style="fill:#000000" />
  <polygon
     id="polygon3496"
     points="560.436,1201.4 562.936,1206.4 552.936,1201.4 562.936,1196.4 "
     style="fill:none;stroke:#000000;stroke-width:2" />
  <polyline
     id="polyline3500"
     points="215.15,1069 213.875,1069 213.875,1201.4 297.864,1201.4 "
     style="fill:none;stroke:#000000;stroke-width:2" />
  <polygon
     id="polygon3502"
     points="297.864,1201.4 295.364,1196.4 305.364,1201.4 295.364,1206.4 "
     style="fill:#000000" />
  <polygon
     id="polygon3504"
     points="297.864,1201.4 295.364,1196.4 305.364,1201.4 295.364,1206.4 "
     style="fill:none;stroke:#000000;stroke-width:2" />
  <rect
     id="rect3508"
     height="38"
     width="107"
     y="1050"
     x="161.64999"
     style="fill:#ffffff" />
  <rect
     id="rect3510"
     height="38"
     width="107"
     y="1050"
     x="161.64999"
     style="fill:none;stroke:#000000;stroke-width:2" />
  <text
     id="text3512"
     y="1072.9"
     x="215.14999"
     style="font-size:12.79979992px;font-style:normal;font-weight:normal;text-anchor:middle;fill:#000000;font-family:sanserif">
    <tspan
       id="tspan3514"
       y="1072.9"
       x="215.14999" />
  </text>
  <polyline
     id="polyline3518"
     points="429.15,1220.4 429.15,1240.4 703.875,1240.4 703.875,742.253 564.386,742.253 "
     style="fill:none;stroke:#000000;stroke-width:2" />
  <polygon
     id="polygon3520"
     points="564.386,742.253 566.886,747.253 556.886,742.253 566.886,737.253 "
     style="fill:#000000" />
  <polygon
     id="polygon3522"
     points="564.386,742.253 566.886,747.253 556.886,742.253 566.886,737.253 "
     style="fill:none;stroke:#000000;stroke-width:2" />
  <polyline
     id="polyline3526"
     points="429.15,742.253 429.15,742.5 149.875,742.5 149.875,1349.4 301.274,1349.4 "
     style="fill:none;stroke:#000000;stroke-width:2" />
  <polygon
     id="polygon3528"
     points="301.274,1349.4 298.774,1344.4 308.774,1349.4 298.774,1354.4 "
     style="fill:#000000" />
  <polygon
     id="polygon3530"
     points="301.274,1349.4 298.774,1344.4 308.774,1349.4 298.774,1354.4 "
     style="fill:none;stroke:#000000;stroke-width:2" />
  <polygon
     id="polygon3534"
     points="429.15,811.107 304.65,742.253 429.15,673.4 553.65,742.253 "
     style="fill:#ffffff" />
  <polygon
     id="polygon3536"
     points="429.15,811.107 304.65,742.253 429.15,673.4 553.65,742.253 "
     style="fill:none;stroke:#000000;stroke-width:2" />
  <text
     id="text3538"
     y="746.15302"
     x="429.14999"
     style="font-size:12.79979992px;font-style:normal;font-weight:normal;text-anchor:middle;fill:#000000;font-family:sanserif">
    <tspan
       id="tspan3540"
       y="746.15302"
       x="429.14999">j&lt;n</tspan>
  </text>
  <rect
     id="rect3544"
     height="70"
     width="243.10001"
     y="1711.9"
     x="314.72501"
     style="fill:#ffffff" />
  <rect
     id="rect3546"
     height="70"
     width="243.10001"
     y="1711.9"
     x="314.72501"
     style="fill:none;stroke:#000000;stroke-width:2" />
  <text
     id="text3548"
     y="1734.8"
     x="436.27499"
     style="font-size:12.79979992px;font-style:normal;font-weight:normal;text-anchor:middle;fill:#000000;font-family:sanserif">
    <tspan
       id="tspan3550"
       y="1734.8"
       x="436.27499">x^k-1 = x^k</tspan>
    <tspan
       id="tspan3552"
       y="1750.8"
       x="436.27499">x^k= Ax^k-1+fx^k-1</tspan>
    <tspan
       id="tspan3554"
       y="1766.8"
       x="436.27499">k=k+1</tspan>
  </text>
  <rect
     id="rect3558"
     height="54"
     width="243.10001"
     y="1322.4"
     x="311.957"
     style="fill:#ffffff" />
  <rect
     id="rect3560"
     height="54"
     width="243.10001"
     y="1322.4"
     x="311.957"
     style="fill:none;stroke:#000000;stroke-width:2" />
  <polyline
     id="polyline3570"
     points="436.275,1611.45 436.275,1611 197.275,1611 197.275,1796.69 "
     style="fill:none;stroke:#000000;stroke-width:2" />
  <polygon
     id="polygon3572"
     points="197.275,1796.69 202.275,1794.19 197.275,1804.19 192.275,1794.19 "
     style="fill:#000000" />
  <polygon
     id="polygon3574"
     points="197.275,1796.69 202.275,1794.19 197.275,1804.19 192.275,1794.19 "
     style="fill:none;stroke:#000000;stroke-width:2" />
  <polygon
     id="polygon3578"
     points="254.563,1846.4 125.792,1846.4 139.987,1807.4 268.758,1807.4 "
     style="fill:#ffffff" />
  <polygon
     id="polygon3580"
     points="254.563,1846.4 125.792,1846.4 139.987,1807.4 268.758,1807.4 "
     style="fill:none;stroke:#000000;stroke-width:2" />
  <text
     id="text3582"
     y="1830.8"
     x="197.27499"
     style="font-size:12.79979992px;font-style:normal;font-weight:normal;text-anchor:middle;fill:#000000;font-family:sanserif">
    <tspan
       id="tspan3584"
       y="1830.8"
       x="197.27499">A, f, n, epsil</tspan>
  </text>
  <polygon
     id="polygon3588"
     points="436.275,1669.22 320.737,1611.45 436.275,1553.68 551.813,1611.45 "
     style="fill:#ffffff" />
  <polygon
     id="polygon3590"
     points="436.275,1669.22 320.737,1611.45 436.275,1553.68 551.813,1611.45 "
     style="fill:none;stroke:#000000;stroke-width:2" />
  <text
     id="text3592"
     y="1615.35"
     x="436.27499"
     style="font-size:12.79979992px;font-style:normal;font-weight:normal;text-anchor:middle;fill:#000000;font-family:sanserif">
    <tspan
       id="tspan3594"
       y="1615.35"
       x="436.27499">||x^k-x^k-1|| &lt; epsilon</tspan>
  </text>
  <line
     id="line3598"
     y2="1701.17"
     x2="436.27499"
     y1="1670.22"
     x1="436.27499"
     style="fill:none;stroke:#000000;stroke-width:2" />
  <polygon
     id="polygon3600"
     points="436.275,1701.17 441.275,1698.67 436.275,1708.67 431.275,1698.67 "
     style="fill:#000000" />
  <polygon
     id="polygon3602"
     points="436.275,1701.17 441.275,1698.67 436.275,1708.67 431.275,1698.67 "
     style="fill:none;stroke:#000000;stroke-width:2" />
  <rect
     id="rect3606"
     height="54"
     width="243.10001"
     y="1437.4"
     x="314.17499"
     style="fill:#ffffff" />
  <rect
     id="rect3608"
     height="54"
     width="243.10001"
     y="1437.4"
     x="314.17499"
     style="fill:none;stroke:#000000;stroke-width:2" />
  <text
     id="text3610"
     y="1468.3"
     x="435.72501"
     style="font-size:12.79979992px;font-style:normal;font-weight:normal;text-anchor:middle;fill:#000000;font-family:sanserif">
    <tspan
       id="tspan3612"
       y="1468.3"
       x="435.72501">k = 0</tspan>
  </text>
  <line
     id="line3616"
     y2="1426.67"
     x2="434.99701"
     y1="1377.4"
     x1="434.047"
     style="fill:none;stroke:#000000;stroke-width:2" />
  <polygon
     id="polygon3618"
     points="434.997,1426.67 439.948,1424.07 435.142,1434.17 429.95,1424.26 "
     style="fill:#000000" />
  <polygon
     id="polygon3620"
     points="434.997,1426.67 439.948,1424.07 435.142,1434.17 429.95,1424.26 "
     style="fill:none;stroke:#000000;stroke-width:2" />
  <line
     id="line3624"
     y2="1543.09"
     x2="436.01901"
     y1="1492.33"
     x1="435.82901"
     style="fill:none;stroke:#000000;stroke-width:2" />
  <polygon
     id="polygon3626"
     points="436.019,1543.09 441.01,1540.57 436.047,1550.59 431.01,1540.61 "
     style="fill:#000000" />
  <polygon
     id="polygon3628"
     points="436.019,1543.09 441.01,1540.57 436.047,1550.59 431.01,1540.61 "
     style="fill:none;stroke:#000000;stroke-width:2" />
  <text
     xml:space="preserve"
     x="479.22983"
     y="2335.573"
     id="text3765"
     transform="matrix(0.56289378,0,0,0.56289378,115.32419,33)"
     style="font-size:31.99999984px"><tspan
       sodipodi:role="line"
       id="tspan3767"
       x="479.22983"
       y="2335.573"><tspan
         style="font-size:31.99999984px;baseline-shift:sub"
         id="tspan3769"> </tspan></tspan></text>
  <text
     xml:space="preserve"
     style="font-size:32px;font-style:normal;font-weight:normal;line-height:125%;letter-spacing:0px;word-spacing:0px;fill:#000000;fill-opacity:1;stroke:none;font-family:Sans"
     x="480.20584"
     y="2338.8264"
     id="text3771"
     sodipodi:linespacing="125%"
     transform="matrix(0.56289378,0,0,0.56289378,115.32419,33)"><tspan
       sodipodi:role="line"
       id="tspan3773"
       x="480.20584"
       y="2338.8264">fi = fi </tspan></text>
</svg>
